<svg xmlns="http://www.w3.org/2000/svg" version="1.1" xmlns:xlink="http://www.w3.org/1999/xlink" width="512" height="512" x="0" y="0" viewBox="0 0 100 100" style="enable-background:new 0 0 512 512" xml:space="preserve"><g><path d="M30.833 60a4.166 4.166 0 1 1-8.333 0 4.166 4.166 0 1 1 8.333 0z" fill="#000000" opacity="1" data-original="#000000"></path><path d="M80 10v15.26a6.667 6.667 0 0 1-13.333 0V10c-3.164 1.385-5.788 3.74-7.565 6.667H31.048c-2.76 0-5.26 1.12-7.07 2.93a10.009 10.009 0 0 0-2.164 3.242L10.762 49.505A9.98 9.98 0 0 0 10 53.334v23.333h6.667v10c0 1.836 1.5 3.333 3.333 3.333h6.667A3.342 3.342 0 0 0 30 86.667v-10h33.333V80c0 5.521 4.479 10 10 10s10-4.479 10-10V38.519C87.36 35.475 90 30.693 90 25.26c0-6.832-4.118-12.685-10-15.26zM63.333 56.667H36.667v6.666h26.666V70H16.667V53.334c0-.439.273-1.322.273-1.322A3.331 3.331 0 0 1 20 49.997V50h43.333zm0-13.334H20.537l7.435-17.943a3.33 3.33 0 0 1 3.076-2.058H56.81c-.071.635-.143 1.272-.143 1.927 0 5.433 2.643 10.215 6.666 13.259zM76.667 80a3.331 3.331 0 0 1-3.334 3.333A3.33 3.33 0 0 1 70 80V43.333h6.667z" fill="#000000" opacity="1" data-original="#000000"></path></g></svg>