<?xml version="1.0" encoding="UTF-8"?>
<svg id="Ebene_1" xmlns="http://www.w3.org/2000/svg" version="1.1" xmlns:xlink="http://www.w3.org/1999/xlink" viewBox="0 0 425.2 293.4">
  <!-- Generator: Adobe Illustrator 29.6.0, SVG Export Plug-In . SVG Version: 2.1.1 Build 207)  -->
  <defs>
    <style>
      .st0 {
        fill: #e1ce3b;
      }

      .st1, .st2 {
        stroke: #009cdf;
      }

      .st1, .st2, .st3 {
        fill: none;
      }

      .st2 {
        stroke-miterlimit: 10;
      }

      .st4 {
        clip-path: url(#clippath-1);
      }

      .st5 {
        clip-path: url(#clippath-2);
      }

      .st6 {
        fill: #9e1974;
      }

      .st7 {
        fill: #bfc543;
      }

      .st8 {
        fill: #5493d0;
      }

      .st9 {
        clip-path: url(#clippath);
      }

      .st10 {
        fill: #e9eaeb;
      }

      .st11 {
        fill: #009cdf;
      }
    </style>
    <clipPath id="clippath">
      <rect class="st3" x="28" y="29.1" width="231.2" height="78.2"/>
    </clipPath>
    <clipPath id="clippath-1">
      <rect class="st2" x="28.3" y="123.1" width="236" height="1"/>
    </clipPath>
    <clipPath id="clippath-2">
      <rect class="st2" x="161.6" y="266.5" width="235.3" height="1"/>
    </clipPath>
  </defs>
  <g class="st9">
    <path class="st8" d="M64.8,61c3.6,0,6.6-3,6.6-6.6s-2.9-6.6-6.6-6.6-6.6,3-6.6,6.6,2.9,6.6,6.6,6.6"/>
    <path class="st7" d="M45.2,64.6c4.1,0,7.4-3.3,7.4-7.4s-3.3-7.4-7.4-7.4-7.4,3.3-7.4,7.4,3.3,7.4,7.4,7.4"/>
    <path class="st6" d="M80.3,51.4c2.7,0,4.9-2.2,4.9-4.9s-2.2-4.9-4.9-4.9-4.9,2.2-4.9,4.9,2.2,4.9,4.9,4.9"/>
    <path class="st0" d="M96.3,64.6c4.8,0,8.7-3.9,8.7-8.7s-3.9-8.7-8.7-8.7-8.7,3.9-8.7,8.7,3.9,8.7,8.7,8.7"/>
    <path class="st8" d="M115.9,64.7c3.6,0,6.6-3,6.6-6.6s-3-6.6-6.6-6.6-6.6,3-6.6,6.6,2.9,6.6,6.6,6.6"/>
    <path class="st10" d="M250.4,105.8c0,.9.4,1.2,1.2,1.2h6.1c.9,0,1.2-.4,1.2-1.2v-1.4h-1.3v.9c0,.3-.2.4-.4.4h-5c-.3,0-.4-.1-.4-.4v-4.8h5.3v-1.2h-5.3v-5.2h4.8c.3,0,.4.1.4.4v.9h1.3v-1.4c0-.9-.4-1.2-1.2-1.2h-8.1v1.2h1.3v11.7h0ZM240.3,107h1.4v-6.3h5.1v-1.2h-5.1v-5.3h4.3c.3,0,.4.1.4.4v.9h1.3v-1.4c0-.9-.3-1.2-1.2-1.2h-7.5v1.2h1.3v12.9ZM230.2,105.8c0,.9.4,1.2,1.2,1.2h5.9c.9,0,1.2-.4,1.2-1.2v-1.4h-1.3v.9c0,.3-.2.4-.4.4h-4.7c-.3,0-.4-.1-.4-.4v-11.2c0-.9-.4-1.2-1.2-1.2h-1.5v1.2h.9c.3,0,.4.1.4.4v11.2h0ZM223.1,107h4.1v-1.2h-1.4v-11.7h1.4v-1.2h-4.1v1.2h1.3v11.7h-1.3v1.2ZM208.9,107h1.4v-6.5h8.1v6.5h1.4v-12.5c0-.3.2-.4.4-.4h.9v-1.2h-1.5c-.9,0-1.2.4-1.2,1.2v5.2h-8.1v-5.2c0-.9-.4-1.2-1.2-1.2h-1.5v1.2h.9c.3,0,.4.1.4.4v12.5ZM196.2,105.3v-11.2h2.8c3.5,0,5.8,2.1,5.8,5.8s-2.3,5.9-5.8,5.9h-2.4c-.3,0-.4-.1-.4-.4M194.8,105.8c0,.9.4,1.2,1.2,1.2h3.1c4.3,0,7.1-2.6,7.1-7.1s-2.8-7.1-7.1-7.1h-5.7v1.2h1.3v11.7h0ZM178.1,107h1.5c.9,0,1.2-.4,1.2-1.2v-8.9c0-.7-.1-1.8-.1-1.8h0s.7,1.2,1.2,1.8l7.2,10.1h1.3v-12.5c0-.3.2-.4.4-.4h.9v-1.2h-1.5c-.9,0-1.2.4-1.2,1.2v8.9c0,.7,0,1.8,0,1.8h0s-.7-1.2-1.2-1.8l-7.2-10.1h-1.3v12.5c0,.3-.2.4-.4.4h-.9v1.2ZM168.2,105.8c0,.9.4,1.2,1.2,1.2h6.1c.9,0,1.2-.4,1.2-1.2v-1.4h-1.3v.9c0,.3-.2.4-.4.4h-5c-.3,0-.4-.1-.4-.4v-4.8h5.3v-1.2h-5.3v-5.2h4.8c.3,0,.4.1.4.4v.9h1.3v-1.4c0-.9-.4-1.2-1.2-1.2h-8.1v1.2h1.3v11.7h0ZM152.3,99.9c0,4.2,3.1,7.4,6.9,7.4s4.6-1.9,4.6-1.9h0v1.7h1.3v-5.4c0-.9-.4-1.2-1.2-1.2h-1.4v1.2h.9c.3,0,.4.1.4.4v1.8s-1.7,2.1-4.5,2.1-5.6-2.5-5.6-6,2.4-6,5.6-6,4.1,1.5,4.1,1.5l.8-1s-1.7-1.7-5-1.7-7.1,3.2-7.1,7.3M139.9,102.2c0,3.1,2.1,5.1,5.2,5.1s5.2-2,5.2-5.1v-7.6c0-.3.2-.4.4-.4h.9v-1.2h-1.5c-.9,0-1.2.4-1.2,1.2v8c0,2.4-1.5,3.9-3.8,3.9s-3.8-1.5-3.8-3.8v-8c0-.9-.4-1.2-1.2-1.2h-1.5v1.2h.9c.3,0,.4.1.4.4v7.6ZM128.7,103c0,3,2,4.2,4,4.2s4-1.2,4-4.2v-9c0-.9-.4-1.2-1.2-1.2h-4.1v1.2h3.5c.3,0,.4.1.4.4v8.5c0,2.2-1.3,2.9-2.6,2.9s-2.6-.7-2.6-3v-.5h-1.4v.6ZM116.1,106c-2.1,0-3.4-1.1-3.4-2.9s.8-2.2,1.7-2.6c.6.6,1.2,1.2,2,1.9.6.6,1.5,1.4,2.5,2.1-.4.7-1.3,1.4-2.8,1.4M120.7,100.6c0-.3,0-.5.5-.5h1.4v-1.2h-1.9c-.9,0-1.3.5-1.3,1.3v1.8c0,.3,0,.7,0,1.1-.6-.6-1.4-1.2-2.2-2-2.8-2.5-3.8-3.8-3.8-5.1s1.2-2.1,2.6-2.1,1.4.2,1.4.2l.4-1.3s-.9-.2-1.8-.2c-2.7,0-4.1,1.5-4.1,3.4s.6,2.4,1.6,3.5c-1,.5-2.2,1.6-2.2,3.6s2,4.2,4.7,4.2,3.3-.9,4-1.9c.4.3.9.6,1.2.9.7.5,1.2.8,2,.8h1v-1.2h-.5c-1,0-1.4-.4-2-.8-.3-.2-.7-.5-1.2-.9.2-.6.2-1.3.2-2.1v-1.4h0ZM100.1,100.6h5.7v-1.2h-5.7v1.2ZM90,99.8v-5.7h3.2c1.7,0,2.7,1.1,2.7,2.8s-1,2.9-2.7,2.9h-3.1ZM88.6,107h1.4v-6h2.4c.8,0,1,0,1.4.9l2,4.1c.5.9.8,1.1,2,1.1h.6v-1.2h-.3c-.5,0-.8,0-1-.5l-2-4c-.2-.4-.5-.6-.5-.6h0c1.4-.3,2.7-1.6,2.7-3.8s-1.7-4-4.1-4h-6v1.2h1.3v12.9h0ZM77.4,105.8c0,.9.4,1.2,1.2,1.2h6.1c.9,0,1.2-.4,1.2-1.2v-1.4h-1.3v.9c0,.3-.2.4-.4.4h-5c-.3,0-.4-.1-.4-.4v-4.8h5.3v-1.2h-5.3v-5.2h4.8c.3,0,.4.1.4.4v.9h1.3v-1.4c0-.9-.4-1.2-1.2-1.2h-8.1v1.2h1.3v11.7h0ZM64.7,105.3v-11.2h2.8c3.5,0,5.8,2.1,5.8,5.8s-2.3,5.9-5.8,5.9h-2.4c-.3,0-.4-.1-.4-.4M63.3,105.8c0,.9.4,1.2,1.2,1.2h3.1c4.3,0,7.1-2.6,7.1-7.1s-2.8-7.1-7.1-7.1h-5.7v1.2h1.3v11.7h0ZM46.6,107h1.5c.9,0,1.2-.4,1.2-1.2v-8.9c0-.7-.1-1.8-.1-1.8h0s.7,1.2,1.2,1.8l7.2,10.1h1.3v-12.5c0-.3.2-.4.4-.4h.9v-1.2h-1.5c-.9,0-1.2.4-1.2,1.2v8.9c0,.7,0,1.8,0,1.8h0s-.7-1.2-1.2-1.8l-7.2-10.1h-1.3v12.5c0,.3-.2.4-.4.4h-.9v1.2ZM40.8,107h4.1v-1.2h-1.4v-11.7h1.4v-1.2h-4.1v1.2h1.3v11.7h-1.3v1.2ZM29.7,107h1.4v-6.8h1.5c.6,0,1.1,0,1.3.5l2.6,5.2c.5.9.8,1.1,2,1.1h.7v-1.2h-.4c-.5,0-.8,0-1-.5l-2.5-4.9c-.3-.7-.7-.8-.7-.8h0s.4-.3.7-.8l3.6-5.9h-1.6l-3.4,5.6c-.3.4-.7.5-1.2.5h-1.7v-4.9c0-.9-.4-1.2-1.2-1.2h-1.5v1.2h.9c.3,0,.4.1.4.4v12.5h0Z"/>
    <path class="st10" d="M123,84s1.7,2.1,4.7,2.1,4.5-1.9,4.5-4.1c0-4.7-6.8-4-6.8-6.9s1-1.9,2.5-1.9,2.2.6,2.2,1.3v.7h1.8v-1.2c0-1.9-2.5-2.6-4.1-2.6-2.7,0-4.6,1.7-4.6,3.8,0,4.4,6.9,4,6.9,7s-1.1,2.1-2.4,2.1c-2.1,0-3.6-1.7-3.6-1.7l-1.2,1.4h0ZM109.5,80.9c0,3.1,2.2,5.2,5.4,5.2s5.4-2.1,5.4-5.2v-7.1c0-.3.2-.4.4-.4h.9v-1.7h-2c-.9,0-1.3.4-1.3,1.3v7.9c0,2.2-1.4,3.4-3.4,3.4s-3.4-1.3-3.4-3.4v-7.9c0-.9-.4-1.3-1.3-1.3h-2v1.7h.9c.3,0,.4.1.4.4v7.1ZM99.4,80.1l1.5-4.3c.3-.7.6-2,.6-2h0s.3,1.2.6,2l1.5,4.3h-4.2ZM95,85.9h1.1c1,0,1.3-.3,1.7-1.2l1.1-2.9h5.2l1.1,2.9c.3.9.6,1.2,1.7,1.2h1.1v-1.7h-.3c-.3,0-.6,0-.7-.4l-4.4-12.1h-2.1l-4.4,12.1c-.1.4-.3.4-.7.4h-.3v1.7ZM81.7,85.9h2v-6.2h7.2v6.2h2v-12.1c0-.3.2-.4.4-.4h.9v-1.7h-2c-.9,0-1.3.4-1.3,1.3v5h-7.2v-5c0-.9-.4-1.3-1.3-1.3h-2v1.7h.9c.3,0,.4.1.4.4v12.1ZM68.9,85.9h2v-6.5h1.2c.6,0,1,0,1.3.5l2.5,4.9c.5.9.9,1.1,2,1.1h1.1v-1.7h-.4c-.5,0-.8,0-1-.5l-2.1-4.3c-.4-.8-.8-.9-.8-.9h0s.4-.3.8-1l3.4-5.9h-2.3l-3.2,5.5c-.2.4-.6.5-1.2.5h-1.4v-4.7c0-.9-.4-1.3-1.3-1.3h-2v1.7h.9c.3,0,.4.1.4.4v12.1h0ZM53.5,78.6c0,4.2,3,7.5,7.2,7.5s5.6-2.4,5.6-2.4l-1.1-1.5s-1.7,1.9-4.5,1.9-5.1-2.5-5.1-5.6,2.2-5.4,5.1-5.4,3.5.6,3.5,1.8v.8h1.8v-1.4c0-2.3-3.4-3.1-5.3-3.1-4.1,0-7.1,3.1-7.1,7.2M44.6,80.1l1.5-4.3c.3-.7.6-2,.6-2h0s.3,1.2.6,2l1.5,4.3h-4.2ZM40.3,85.9h1.1c1,0,1.3-.3,1.7-1.2l1.1-2.9h5.2l1.1,2.9c.3.9.6,1.2,1.7,1.2h1.1v-1.7h-.3c-.3,0-.6,0-.7-.4l-4.4-12.1h-2.1l-4.4,12.1c-.1.4-.3.4-.7.4h-.3v1.7ZM31.8,83.7v-4.4h3c1.5,0,2.4,1,2.4,2.4s-.9,2.4-2.4,2.4h-2.5c-.3,0-.4-.2-.4-.4M31.8,77.6v-4.2h2.7c1.3,0,2.1.9,2.1,2.1s-.8,2.2-2.1,2.2h-2.8ZM29.8,84.6c0,.9.4,1.3,1.3,1.3h3.6c2.5,0,4.6-1.4,4.6-4.1s-.8-3-2.3-3.5h0c.9-.5,1.8-1.6,1.8-3.1,0-2.3-1.7-3.6-4.1-3.6h-6.1v1.7h1.3v11.2h0Z"/>
    <path class="st10" d="M80.2,29.3c-2.3,0-4,.5-4,.5l-47.8,12.9v3.6l47.8-13c1.4-.4,2.7-.5,4-.5s2.6.1,4,.5l47.8,13v-3.6l-47.8-12.9s-1.7-.5-4-.5"/>
  </g>
  <g>
    <g class="st4">
      <line class="st1" x1="28.3" y1="123.6" x2="264.3" y2="123.6"/>
    </g>
    <rect class="st2" x="28.3" y="123.1" width="236" height="1"/>
  </g>
  <g>
    <path class="st11" d="M34.5,141.8h-3.9v-5.1h18.2c7.2,0,12.4,3.9,12.4,10.6s-2.5,7.6-5.3,8.9h0c4.5,1.4,7,5.5,7,10.2,0,7.8-6.1,11.8-13.7,11.8h-10.8c-2.7,0-3.9-1.1-3.9-3.8v-32.7ZM48.8,154.2c3.7,0,6.1-2.6,6.1-6.3s-2.3-6.1-6.3-6.1h-8.2v12.4h8.3ZM41.9,173.2h7.6c4.5,0,7.2-2.8,7.2-7.1s-2.8-7.1-7.2-7.1h-8.9v12.9c0,.8.5,1.3,1.3,1.3Z"/>
    <path class="st11" d="M86.2,159.8h1.3v-.3c0-5.2-2-7.1-6.8-7.1s-5,.4-5,2.3v1.7h-5.5v-2.9c0-4.9,7.6-5.6,10.6-5.6,9.9,0,12.5,5.1,12.5,11.6v12.6c0,.9.5,1.3,1.3,1.3h2.5v4.9h-5.5c-2.7,0-3.8-1.3-3.8-3.4s.1-1.8.1-1.8h-.1s-2.4,5.9-9.7,5.9-10.4-3.1-10.4-9.1c0-9.6,13.3-10.2,18.4-10.2ZM79.4,174.4c4.9,0,8.1-5.1,8.1-9.5v-1h-1.5c-4.4,0-12.4.2-12.4,5.7s1.9,4.8,5.7,4.8Z"/>
    <path class="st11" d="M116.9,147.8c3.7,0,11,1.5,11,6.5v3.1h-5.3v-1.6c0-2.1-3.4-3.1-5.7-3.1-6,0-10.4,4.4-10.4,10.6s5.1,10.6,10.7,10.6,9.5-4.1,9.5-4.1l2.5,4.1s-4.3,5.1-12.4,5.1-16.3-6.6-16.3-15.6,6.6-15.6,16.4-15.6Z"/>
    <path class="st11" d="M135.2,142.9c0-.9-.5-1.3-1.3-1.3h-2.5v-4.9h5.8c2.7,0,3.9.8,3.9,3.4v19.3h2.7c1.1,0,2.4-.3,3.2-1.3l7.1-9.6h6.7l-8.3,11.1c-1.4,1.8-2.3,2.2-2.3,2.2h0c0,.1,1,.5,2,2.4l4.5,8.1c.5.9,1.1,1.2,2.6,1.2h1.9v4.9h-4.2c-2.8,0-3.7-.5-5.1-2.8l-5.5-10c-.7-1.1-2-1.2-3-1.2h-2.3v14h-5.8v-35.3Z"/>
    <path class="st11" d="M166.4,142.9c0-.9-.5-1.3-1.3-1.3h-2.5v-4.9h5.8c2.7,0,3.9,1.1,3.9,3.6v11.6c0,1.4-.1,2.5-.1,2.5h.1c1.3-2.9,5.2-6.6,11.3-6.6s10.4,3.8,10.4,11.4v12.9c0,.9.5,1.3,1.3,1.3h2.5v4.9h-5.7c-2.7,0-3.9-1.1-3.9-3.8v-14c0-4.2-.9-7.5-5.8-7.5s-8.4,3.1-9.6,7.3c-.4,1.2-.5,2.5-.5,3.9v13.9h-5.8v-35.3Z"/>
    <path class="st11" d="M219.6,159.8h1.3v-.3c0-5.2-2-7.1-6.8-7.1s-5,.4-5,2.3v1.7h-5.5v-2.9c0-4.9,7.6-5.6,10.6-5.6,9.9,0,12.5,5.1,12.5,11.6v12.6c0,.9.5,1.3,1.3,1.3h2.5v4.9h-5.5c-2.7,0-3.8-1.3-3.8-3.4s.1-1.8.1-1.8h-.1s-2.4,5.9-9.7,5.9-10.4-3.1-10.4-9.1c0-9.6,13.3-10.2,18.4-10.2ZM212.9,174.4c4.9,0,8.1-5.1,8.1-9.5v-1h-1.5c-4.4,0-12.4.2-12.4,5.7s1.9,4.8,5.7,4.8Z"/>
    <path class="st11" d="M236.8,154.7c0-.9-.5-1.3-1.3-1.3h-2.5v-4.9h5.7c2.8,0,3.9,1.1,3.9,3.6v14.1c0,4.1.8,7.4,5.7,7.4s9.9-5.3,9.9-11.2v-13.9h5.8v23.6c0,.9.5,1.3,1.3,1.3h2.5v4.9h-5.6c-2.6,0-3.9-1.2-3.9-3.3v-1.1c0-.9,0-1.7,0-1.7h-.1c-1.3,2.9-5.2,6.8-11.2,6.8s-10.4-3.5-10.4-11.4v-12.9Z"/>
    <path class="st11" d="M273.9,169.9s3.6,4.4,9.2,4.4,5.3-1.2,5.3-3.8c0-5.3-16.6-4.8-16.6-14.3s5.1-8.3,11.3-8.3,10,1.2,10,5.8v2.8h-5.2v-1.5c0-1.8-2.7-2.5-4.6-2.5-3.4,0-5.7,1.2-5.7,3.5,0,5.6,16.6,4.4,16.6,14.3s-4.8,8.7-11.2,8.7-12.2-5.2-12.2-5.2l3-3.8Z"/>
    <path class="st10" d="M117.3,241.8h.8c1.1,0,1.6-.2,2-1.3l13.3-35.2h6.3l13.3,35.2c.4,1.1,1,1.3,2,1.3h.9v5.1h-3.4c-3,0-4-.7-4.9-3.4l-3.2-8.5h-15.7l-3.2,8.5c-1,2.7-2,3.4-5,3.4h-3.3v-5.1ZM142.9,230l-4.6-12.6c-.8-2.2-1.7-5.8-1.7-5.8h-.1s-.8,3.6-1.6,5.8l-4.6,12.6h12.7Z"/>
    <path class="st10" d="M161.5,211.5c0-.9-.5-1.3-1.3-1.3h-2.5v-4.9h5.8c2.7,0,3.9.8,3.9,3.4v19.3h2.7c1.1,0,2.4-.3,3.2-1.3l7.1-9.6h6.7l-8.3,11.1c-1.4,1.8-2.3,2.2-2.3,2.2h0c0,.1,1,.5,2,2.4l4.5,8.1c.5.9,1.1,1.2,2.6,1.2h1.9v4.9h-4.2c-2.8,0-3.7-.5-5.1-2.8l-5.5-10c-.7-1.1-2-1.2-3-1.2h-2.3v14h-5.8v-35.3Z"/>
    <path class="st10" d="M208.6,228.4h1.3v-.3c0-5.2-2-7.1-6.8-7.1s-5,.4-5,2.3v1.7h-5.5v-2.9c0-4.9,7.6-5.6,10.6-5.6,9.9,0,12.5,5.1,12.5,11.6v12.6c0,.9.5,1.3,1.3,1.3h2.5v4.9h-5.5c-2.7,0-3.8-1.3-3.8-3.4s.1-1.8.1-1.8h-.1s-2.4,5.9-9.7,5.9-10.4-3.1-10.4-9.1c0-9.6,13.3-10.2,18.4-10.2ZM201.8,243c4.9,0,8.1-5.1,8.1-9.5v-1h-1.5c-4.4,0-12.4.2-12.4,5.7s1.9,4.8,5.7,4.8Z"/>
    <path class="st10" d="M236.8,216.4c7.1,0,9.4,4.6,9.4,4.6h.1s-.1-.9-.1-2v-7.5c0-.9-.5-1.3-1.3-1.3h-2.5v-4.9h5.8c2.7,0,3.9,1.1,3.9,3.8v31.6c0,.9.5,1.3,1.3,1.3h2.5v4.9h-5.6c-2.7,0-3.7-1.2-3.7-3.2s0-1.5,0-1.5h-.1s-2.5,5.4-10,5.4-13.4-6.3-13.4-15.6,5.7-15.6,13.8-15.6ZM246.4,231.9c0-5.3-2.8-10.6-8.7-10.6s-8.7,3.9-8.7,10.6,3.6,10.6,8.6,10.6,8.8-3.1,8.8-10.7Z"/>
    <path class="st10" d="M274.7,216.4c8.6,0,13.1,6.2,13.1,13.9s-.2,2.4-.2,2.4h-22.2c.4,6.3,5.1,9.9,10.5,9.9s8.9-3.5,8.9-3.5l2.5,4.1s-4.5,4.4-11.8,4.4-16.2-6.8-16.2-15.6,6.6-15.6,15.3-15.6ZM281.8,228.5c-.2-4.9-3.4-7.6-7.2-7.6s-8.1,2.6-9,7.6h16.2Z"/>
    <path class="st10" d="M295.6,223.3c0-.9-.5-1.3-1.3-1.3h-2.5v-4.9h5.6c2.7,0,3.9,1.1,3.9,3.3v1.1c0,.9,0,1.7,0,1.7h.1c1.4-3.5,5.7-6.8,10.4-6.8s8.1,2.3,9.2,6.8h.1c1.7-3.6,5.9-6.8,10.9-6.8s10.1,3.8,10.1,11.4v12.9c0,.9.5,1.3,1.3,1.3h2.5v4.9h-5.8c-2.7,0-3.9-1.1-3.9-3.8v-14.1c0-4.2-.8-7.5-5.4-7.5s-7.5,3.6-8.6,7.6c-.3,1.2-.5,2.5-.5,4.1v13.6h-5.8v-17.8c0-3.9-.6-7.5-5.2-7.5s-7.6,3.6-8.7,7.9c-.3,1.2-.4,2.5-.4,3.8v13.6h-5.8v-23.6Z"/>
    <path class="st10" d="M352.4,223.3c0-.9-.5-1.3-1.3-1.3h-2.5v-4.9h5.7c2.7,0,3.9,1.1,3.9,3.8v19.8c0,.9.5,1.3,1.3,1.3h2.5v4.9h-5.7c-2.7,0-3.9-1.1-3.9-3.8v-19.8ZM352.5,205.4h5.2v5.9h-5.2v-5.9Z"/>
    <path class="st10" d="M381.1,216.4c8.6,0,13.1,6.2,13.1,13.9s-.2,2.4-.2,2.4h-22.2c.4,6.3,5.1,9.9,10.5,9.9s8.9-3.5,8.9-3.5l2.5,4.1s-4.5,4.4-11.8,4.4-16.2-6.8-16.2-15.6,6.6-15.6,15.3-15.6ZM388.2,228.5c-.2-4.9-3.4-7.6-7.2-7.6s-8.1,2.6-9,7.6h16.2Z"/>
  </g>
  <g>
    <g class="st5">
      <line class="st1" x1="161.6" y1="267" x2="396.9" y2="267"/>
    </g>
    <rect class="st2" x="161.6" y="266.5" width="235.3" height="1"/>
  </g>
</svg>