<?xml version="1.0" encoding="UTF-8"?>
<svg id="Ebene_1" xmlns="http://www.w3.org/2000/svg" version="1.1" viewBox="0 0 1020 361.6">
  <!-- Generator: Adobe Illustrator 29.3.1, SVG Export Plug-In . SVG Version: 2.1.0 Build 151)  -->
  <defs>
    <style>
      .st0 {
        fill: #0096d7;
      }

      .st1 {
        fill: #ead025;
      }

      .st2 {
        fill: #e9ebec;
      }

      .st3 {
        fill: #b91377;
      }

      .st4 {
        fill: #bfc734;
      }
    </style>
  </defs>
  <path class="st0" d="M167.7,149.7c15.7,0,28.5-12.8,28.5-28.5s-12.8-28.5-28.5-28.5-28.5,12.8-28.5,28.5,12.8,28.5,28.5,28.5"/>
  <path class="st4" d="M82.9,165.5c17.7,0,32-14.3,32-32s-14.3-32-32-32-32,14.3-32,32,14.3,32,32,32"/>
  <path class="st3" d="M234.9,108.1c11.8,0,21.4-9.6,21.4-21.4s-9.6-21.4-21.4-21.4-21.4,9.6-21.4,21.4,9.6,21.4,21.4,21.4"/>
  <path class="st1" d="M304.6,165.3c20.9,0,37.9-17,37.9-37.9s-17-37.9-37.9-37.9-37.9,17-37.9,37.9,17,37.9,37.9,37.9"/>
  <path class="st0" d="M389.7,165.7c15.7,0,28.5-12.8,28.5-28.5s-12.8-28.5-28.5-28.5-28.5,12.8-28.5,28.5,12.8,28.5,28.5,28.5"/>
  <path class="st2" d="M15.7,349.4h6.1v-29.4h6.7c2.6,0,4.6.3,5.6,2.3l11.2,22.5c2,4.1,3.5,4.6,8.5,4.6h3.2v-5.4h-1.7c-2.3,0-3.6-.2-4.5-2l-10.7-21.2c-1.5-3-3-3.5-3-3.5v-.2s1.6-.9,3.1-3.4l15.8-25.8h-7l-14.9,24.5c-1.1,1.7-2.9,2.2-5.2,2.2h-7.3v-21.3c0-3.8-1.6-5.3-5.3-5.3h-6.5v5.4h3.8c1.2,0,1.9.6,1.9,1.9v54.1h.2ZM63.7,349.4h17.6v-5.4h-5.9v-50.6h5.9v-5.4h-17.6v5.4h5.8v50.6h-5.8s0,5.4,0,5.4ZM89,349.4h6.5c3.8,0,5.3-1.6,5.3-5.3v-38.5c0-3.2-.5-8-.5-8h.2s2.9,5,5.1,8l31.4,43.8h5.6v-54.1c0-1.3.7-1.9,1.9-1.9h3.8v-5.4h-6.5c-3.8,0-5.3,1.6-5.3,5.3v38.5c0,3.2.4,8,.4,8h-.2s-2.9-5-5-8l-31.4-43.8h-5.6v54.1c0,1.3-.7,1.9-1.9,1.9h-3.8s0,5.4,0,5.4ZM161.1,344.1c0,3.8,1.6,5.3,5.3,5.3h13.6c18.5,0,30.9-11.2,30.9-30.8s-12.3-30.7-30.9-30.7h-24.7v5.4h5.7v50.7h0ZM167.2,342.1v-48.7h12.2c15,0,25.1,8.9,25.1,25.3s-10,25.4-25.1,25.4h-10.3c-1.2,0-1.9-.6-1.9-1.9M222.3,344.1c0,3.8,1.6,5.3,5.3,5.3h26.6c3.8,0,5.3-1.6,5.3-5.3v-6.1h-5.7v4.1c0,1.3-.7,1.9-1.9,1.9h-21.6c-1.2,0-1.9-.6-1.9-1.9v-20.9h23.1v-5.4h-23.1v-22.4h21c1.2,0,1.9.6,1.9,1.9v4.1h5.8v-6.1c0-3.8-1.6-5.3-5.3-5.3h-35.1v5.4h5.7v50.7h-.1ZM271.1,349.4h6.1v-25.9h10.3c3.4,0,4.5.4,6.2,3.7l8.8,17.6c2,4,3.5,4.6,8.5,4.6h2.7v-5.4h-1.2c-2.2,0-3.5-.2-4.4-2l-8.8-17.5c-.9-1.7-2.1-2.4-2.1-2.4v-.2c6-1.3,11.9-6.9,11.9-16.4s-7.3-17.5-17.7-17.5h-26.1v5.4h5.7v56h.1ZM277.2,318.1v-24.7h13.7c7.3,0,11.8,4.6,11.8,12.2s-4.5,12.5-11.9,12.5h-13.6ZM321.1,321.6h24.8v-5.4h-24.8v5.4ZM410.4,321.5c0-1.4.4-2.2,2.1-2.2h5.9v-5.4h-8.1c-3.8,0-5.8,2-5.8,5.8v8c0,1.2,0,3.1-.3,4.8-2.8-2.4-5.9-5.2-9.6-8.6-12.2-11-16.3-16.5-16.3-22.1s5.2-9.1,11.4-9.1,5.9.8,5.9.8l1.9-5.6s-3.8-1-7.6-1c-11.8,0-17.7,6.5-17.7,14.7s2.5,10.5,7,15.3c-4.4,2.1-9.6,7.1-9.6,15.4s8.6,18.2,20.3,18.2,14.4-3.8,17.2-8.2c1.9,1.5,3.7,2.8,5.2,3.8,3.2,2.3,5.2,3.3,8.7,3.3h4.5v-5.4h-2.3c-4.3,0-6.1-1.6-8.7-3.5-1.4-1-3.1-2.3-5-3.8.7-2.5,1-5.6,1-9.1v-6.1h-.1ZM390.3,344.8c-8.9,0-14.7-4.9-14.7-12.7s3.4-9.4,7.3-11.1c2.8,2.8,5.4,5.3,8.8,8.4,2.7,2.5,6.7,5.9,10.8,9.3-1.6,3-5.8,6.1-12.2,6.1M445.1,332.2c0,13.2,8.8,18.3,17.3,18.3s17.3-5,17.3-18.3v-38.9c0-3.8-1.6-5.3-5.3-5.3h-17.9v5.4h15.2c1.2,0,1.9.6,1.9,1.9v36.7c0,9.4-5.7,12.7-11.1,12.7s-11.3-3.1-11.3-12.8v-2.1h-6.1v2.4h0ZM493.6,328.4c0,13.3,9.2,22.1,22.7,22.1s22.6-8.8,22.6-22.1v-33c0-1.3.7-1.9,1.9-1.9h3.8v-5.4h-6.5c-3.8,0-5.3,1.6-5.3,5.3v34.6c0,10.4-6.6,16.8-16.6,16.8s-16.5-6.4-16.5-16.6v-34.8c0-3.8-1.6-5.3-5.3-5.3h-6.5v5.4h3.8c1.2,0,1.9.6,1.9,1.9v33ZM547.5,318.6c0,18.4,13.3,31.9,30.1,31.9s20.1-8.3,20.1-8.3h.2v7.2h5.6v-23.3c0-3.8-1.6-5.3-5.3-5.3h-6.1v5.4h3.8c1.2,0,1.9.6,1.9,1.9v7.6s-7.3,9-19.4,9-24.3-11-24.3-26.1,10.6-25.9,24.4-25.9,17.8,6.3,17.8,6.3l3.6-4.5s-7.3-7.5-21.5-7.5-30.7,14-30.7,31.7M616.4,344.1c0,3.8,1.6,5.3,5.3,5.3h26.6c3.8,0,5.3-1.6,5.3-5.3v-6.1h-5.7v4.1c0,1.3-.7,1.9-1.9,1.9h-21.6c-1.2,0-1.9-.6-1.9-1.9v-20.9h23.1v-5.4h-23.1v-22.4h21c1.2,0,1.9.6,1.9,1.9v4.1h5.8v-6.1c0-3.8-1.6-5.3-5.3-5.3h-35.1v5.4h5.7v50.7h0ZM659.5,349.4h6.5c3.8,0,5.3-1.6,5.3-5.3v-38.5c0-3.2-.5-8-.5-8h.2s2.9,5,5.1,8l31.4,43.8h5.6v-54.1c0-1.3.7-1.9,1.9-1.9h3.8v-5.4h-6.5c-3.8,0-5.3,1.6-5.3,5.3v38.5c0,3.2.4,8,.4,8h-.2s-2.9-5-5-8l-31.4-43.8h-5.6v54.1c0,1.3-.7,1.9-1.9,1.9h-3.8v5.4ZM731.6,344.1c0,3.8,1.6,5.3,5.3,5.3h13.6c18.5,0,30.9-11.2,30.9-30.8s-12.3-30.7-30.9-30.7h-24.7v5.4h5.7v50.7h.1ZM737.8,342.1v-48.7h12.2c15,0,25.1,8.9,25.1,25.3s-10,25.4-25.1,25.4h-10.3c-1.2,0-1.9-.6-1.9-1.9M792.8,349.4h6.1v-28.1h35.3v28.1h6.1v-54.1c0-1.3.7-1.9,1.9-1.9h3.8v-5.4h-6.6c-3.7,0-5.2,1.6-5.2,5.3v22.6h-35.3v-22.6c0-3.8-1.6-5.3-5.3-5.3h-6.5v5.4h3.8c1.2,0,1.9.6,1.9,1.9v54.1ZM854.6,349.4h17.6v-5.4h-5.9v-50.6h5.9v-5.4h-17.6v5.4h5.8v50.6h-5.8v5.4ZM885.5,344.1c0,3.8,1.6,5.3,5.3,5.3h25.4c3.8,0,5.3-1.6,5.3-5.3v-6.1h-5.8v4.1c0,1.3-.7,1.9-1.9,1.9h-20.4c-1.2,0-1.9-.6-1.9-1.9v-48.8c0-3.8-1.6-5.3-5.3-5.3h-6.5v5.4h3.8c1.2,0,1.9.6,1.9,1.9v48.8h.1ZM929.1,349.4h6.1v-27.5h22.3v-5.4h-22.3v-23.1h18.5c1.2,0,1.9.6,1.9,1.9v4.1h5.7v-6.1c0-3.8-1.5-5.3-5.2-5.3h-32.7v5.4h5.7v56ZM972.8,344.1c0,3.8,1.6,5.3,5.3,5.3h26.6c3.8,0,5.3-1.6,5.3-5.3v-6.1h-5.7v4.1c0,1.3-.7,1.9-1.9,1.9h-21.6c-1.2,0-1.9-.6-1.9-1.9v-20.9h23.1v-5.4h-23.1v-22.4h21c1.2,0,1.9.6,1.9,1.9v4.1h5.8v-6.1c0-3.8-1.6-5.3-5.3-5.3h-35.1v5.4h5.7v50.7h0Z"/>
  <path class="st2" d="M15.9,252c0,3.9,1.7,5.6,5.6,5.6h15.6c10.9,0,19.8-5.9,19.8-17.6s-3.6-13-10.1-15v-.2c4.1-2,7.7-6.6,7.7-13.3,0-10-7.5-15.7-17.9-15.7H10.2v7.5h5.7v48.6h0ZM24.6,221.9v-18.4h11.9c5.8,0,9.1,3.7,9.1,9.1s-3.5,9.4-8.9,9.4h-12.1,0ZM24.6,248.2v-19.1h12.9c6.3,0,10.4,4.3,10.4,10.6s-3.8,10.5-10.4,10.5h-11c-1.2,0-1.9-.7-1.9-1.9M61.5,257.6h4.8c4.4,0,5.8-1.1,7.3-5.1l4.6-12.7h22.7l4.6,12.7c1.4,4,2.8,5.1,7.2,5.1h4.9v-7.5h-1.3c-1.5,0-2.4-.4-2.9-1.9l-19.3-52.3h-9.2l-19.3,52.3c-.5,1.6-1.3,1.9-2.9,1.9h-1.2s0,7.5,0,7.5ZM80.3,232.5l6.7-18.8c1.1-3.2,2.4-8.7,2.4-8.7h.2s1.3,5.4,2.4,8.7l6.7,18.8s-18.4,0-18.4,0ZM118.9,226.2c0,18.2,12.9,32.4,31.3,32.4s24.3-10.3,24.3-10.3l-4.7-6.3s-7.3,8.4-19.5,8.4-22.3-10.8-22.3-24.2,9.6-23.3,22-23.3,15,2.6,15,7.8v3.5h8v-6c0-9.9-14.9-13.4-23.2-13.4-17.7,0-30.9,13.5-30.9,31.4M185.8,257.6h8.7v-28.3h5.2c2.5,0,4.5.3,5.5,2.3l10.7,21.4c2,4,3.8,4.6,8.6,4.6h4.8v-7.5h-1.7c-2.1,0-3.5-.2-4.4-2l-9.3-18.5c-1.7-3.4-3.5-3.8-3.5-3.8v-.2s1.7-1,3.5-4l14.9-25.6h-9.8l-13.7,23.9c-1,1.7-2.8,2.1-5.1,2.1h-5.9v-20.4c0-3.9-1.7-5.6-5.6-5.6h-8.8v7.5h3.8c1.2,0,1.9.6,1.9,1.9v52.3h.2ZM241,257.6h8.7v-27.1h31.4v27.1h8.7v-52.3c0-1.3.7-1.9,1.9-1.9h3.8v-7.5h-8.8c-3.9,0-5.6,1.7-5.6,5.6v21.6h-31.4v-21.6c0-3.9-1.7-5.6-5.6-5.6h-8.8v7.5h3.8c1.2,0,1.9.6,1.9,1.9v52.3ZM299,257.6h4.8c4.4,0,5.8-1.1,7.3-5.1l4.6-12.7h22.7l4.6,12.7c1.4,4,2.8,5.1,7.2,5.1h4.9v-7.5h-1.3c-1.5,0-2.4-.4-2.9-1.9l-19.3-52.3h-9.2l-19.3,52.3c-.5,1.6-1.3,1.9-2.9,1.9h-1.2v7.5h0ZM317.8,232.5l6.7-18.8c1.1-3.2,2.4-8.7,2.4-8.7h.2s1.3,5.4,2.4,8.7l6.7,18.8h-18.4ZM361.8,236c0,13.5,9.4,22.6,23.6,22.6s23.4-9.2,23.4-22.6v-30.7c0-1.3.7-1.9,1.9-1.9h3.8v-7.5h-8.7c-3.9,0-5.7,1.7-5.7,5.6v34.1c0,9.4-5.9,14.9-14.8,14.9s-14.8-5.5-14.8-14.8v-34.2c0-3.9-1.7-5.6-5.6-5.6h-8.8v7.5h3.8c1.2,0,1.9.6,1.9,1.9v30.7h0ZM420.1,249.5s7.3,9.2,20.5,9.2,19.6-8.1,19.6-17.6c0-20.3-29.7-17.5-29.7-30s4.2-8.3,10.8-8.3,9.5,2.4,9.5,5.6v2.9h8v-5.1c0-8.4-11-11.4-17.6-11.4-11.6,0-19.8,7.3-19.8,16.5,0,19.2,29.8,17.2,29.8,30.2s-4.8,9.2-10.6,9.2c-9.2,0-15.5-7.4-15.5-7.4l-5.2,6.2h.2Z"/>
  <path class="st2" d="M234.6,12.1c-9.9.1-17.2,2.1-17.2,2.1L10.2,70.2v15.6L217.4,29.4c6-1.6,11.9-2.1,17.2-2.1s11.2.5,17.2,2.1l207.3,56.5v-15.6L251.9,14.3s-7.3-2-17.2-2.1"/>
</svg>